# xmcd
#
# Track frame offsets: 
#        150
#        13307
#        24694
#        36484
#        47867
#        60212
#        70753
#        81583
#        92224
#        104950
#        115789
#        126812
#        138797
#        148787
#        159840
#        173321
#        184868
#        194167
#
# Disc length: 2758 seconds
#
# Revision: 5
# Processed by: cddbd v1.5.2PL0 Copyright (c) Steve Scherf et al.
# Submitted via: ExactAudioCopy v0.99pb5
#
DISCID=050ac412
DTITLE=Various Artist - Classic Country Gold - CD 1
DYEAR=2005
DGENRE=Country
TTITLE0=Hank Williams - Hey, good lookin'
TTITLE1=Kitty Wells - It wasn't God who made honky tonk angels
TTITLE2="Tennessee" Ernie Ford - Sixteen tons
TTITLE3=Webb Pierce and Red Sovine - Why baby why
TTITLE4=Johnny Cash - I walk the line
TTITLE5=Everly Brothers - All I have to do is dream
TTITLE6=Faron Young - Hello walls
TTITLE7=Leroy Van Dyke - Walk on by
TTITLE8=Patsy Cline - I fall to pieces
TTITLE9=George Jones - Tender years
TTITLE10=Roger Miller - King of the road
TTITLE11=Eddy Arnold - Make the world go away
TTITLE12=Merle Haggard And The Strangers - Mama tried
TTITLE13=Conway Twitty - Hello darlin'
TTITLE14=Loretta Lynn - Coal miner's daughter
TTITLE15=Sammi Smith - Help me make it through the night
TTITLE16=Charley Pride - Kiss an angel good mornin'
TTITLE17=Jerry Lee Lewis - Chantilly lace
EXTD=
EXTT0=
EXTT1=
EXTT2=
EXTT3=
EXTT4=
EXTT5=
EXTT6=
EXTT7=
EXTT8=
EXTT9=
EXTT10=
EXTT11=
EXTT12=
EXTT13=
EXTT14=
EXTT15=
EXTT16=
EXTT17=
PLAYORDER=
